<mxfile host="app.diagrams.net" agent="Mozilla/5.0 (Windows NT 10.0; Win64; x64) AppleWebKit/537.36 (KHTML, like Gecko) Chrome/126.0.0.0 Safari/537.36" version="24.7.4" pages="3">
  <diagram name="Página-1" id="Mr-y8j6FvAP_OPJDIxmG">
    <mxGraphModel dx="1375" dy="313" grid="1" gridSize="10" guides="1" tooltips="1" connect="1" arrows="1" fold="1" page="1" pageScale="1" pageWidth="827" pageHeight="1169" math="0" shadow="0">
      <root>
        <mxCell id="0" />
        <mxCell id="1" parent="0" />
        <mxCell id="hx60Nt_0j53-Y6OIGw7m-4" style="edgeStyle=orthogonalEdgeStyle;rounded=0;orthogonalLoop=1;jettySize=auto;html=1;exitX=1;exitY=0.5;exitDx=0;exitDy=0;entryX=0;entryY=0.5;entryDx=0;entryDy=0;endArrow=none;endFill=0;" edge="1" parent="1" source="hx60Nt_0j53-Y6OIGw7m-1" target="hx60Nt_0j53-Y6OIGw7m-3">
          <mxGeometry relative="1" as="geometry" />
        </mxCell>
        <mxCell id="hx60Nt_0j53-Y6OIGw7m-1" value="Cliente" style="rounded=0;whiteSpace=wrap;html=1;" vertex="1" parent="1">
          <mxGeometry x="150" y="100" width="120" height="60" as="geometry" />
        </mxCell>
        <mxCell id="hx60Nt_0j53-Y6OIGw7m-2" value="Produto" style="rounded=0;whiteSpace=wrap;html=1;" vertex="1" parent="1">
          <mxGeometry x="510" y="100" width="120" height="60" as="geometry" />
        </mxCell>
        <mxCell id="hx60Nt_0j53-Y6OIGw7m-5" style="edgeStyle=orthogonalEdgeStyle;rounded=0;orthogonalLoop=1;jettySize=auto;html=1;exitX=1;exitY=0.5;exitDx=0;exitDy=0;entryX=0;entryY=0.5;entryDx=0;entryDy=0;endArrow=none;endFill=0;" edge="1" parent="1" source="hx60Nt_0j53-Y6OIGw7m-3" target="hx60Nt_0j53-Y6OIGw7m-2">
          <mxGeometry relative="1" as="geometry" />
        </mxCell>
        <mxCell id="hx60Nt_0j53-Y6OIGw7m-3" value="aluga" style="rhombus;whiteSpace=wrap;html=1;" vertex="1" parent="1">
          <mxGeometry x="350" y="90" width="80" height="80" as="geometry" />
        </mxCell>
        <mxCell id="hx60Nt_0j53-Y6OIGw7m-6" value="1" style="text;html=1;align=center;verticalAlign=middle;resizable=0;points=[];autosize=1;strokeColor=none;fillColor=none;" vertex="1" parent="1">
          <mxGeometry x="275" y="98" width="30" height="30" as="geometry" />
        </mxCell>
        <mxCell id="hx60Nt_0j53-Y6OIGw7m-7" value="N" style="text;html=1;align=center;verticalAlign=middle;resizable=0;points=[];autosize=1;strokeColor=none;fillColor=none;" vertex="1" parent="1">
          <mxGeometry x="480" y="98" width="30" height="30" as="geometry" />
        </mxCell>
        <mxCell id="hx60Nt_0j53-Y6OIGw7m-8" value="Cliente" style="swimlane;fontStyle=0;childLayout=stackLayout;horizontal=1;startSize=30;horizontalStack=0;resizeParent=1;resizeParentMax=0;resizeLast=0;collapsible=1;marginBottom=0;whiteSpace=wrap;html=1;" vertex="1" parent="1">
          <mxGeometry x="-90" y="210" width="140" height="150" as="geometry" />
        </mxCell>
        <mxCell id="hx60Nt_0j53-Y6OIGw7m-9" value="Cód Cliente (PK)" style="text;strokeColor=none;fillColor=none;align=left;verticalAlign=middle;spacingLeft=4;spacingRight=4;overflow=hidden;points=[[0,0.5],[1,0.5]];portConstraint=eastwest;rotatable=0;whiteSpace=wrap;html=1;" vertex="1" parent="hx60Nt_0j53-Y6OIGw7m-8">
          <mxGeometry y="30" width="140" height="30" as="geometry" />
        </mxCell>
        <mxCell id="hx60Nt_0j53-Y6OIGw7m-10" value="Nome" style="text;strokeColor=none;fillColor=none;align=left;verticalAlign=middle;spacingLeft=4;spacingRight=4;overflow=hidden;points=[[0,0.5],[1,0.5]];portConstraint=eastwest;rotatable=0;whiteSpace=wrap;html=1;" vertex="1" parent="hx60Nt_0j53-Y6OIGw7m-8">
          <mxGeometry y="60" width="140" height="30" as="geometry" />
        </mxCell>
        <mxCell id="hx60Nt_0j53-Y6OIGw7m-11" value="CPF" style="text;strokeColor=none;fillColor=none;align=left;verticalAlign=middle;spacingLeft=4;spacingRight=4;overflow=hidden;points=[[0,0.5],[1,0.5]];portConstraint=eastwest;rotatable=0;whiteSpace=wrap;html=1;" vertex="1" parent="hx60Nt_0j53-Y6OIGw7m-8">
          <mxGeometry y="90" width="140" height="30" as="geometry" />
        </mxCell>
        <mxCell id="hx60Nt_0j53-Y6OIGw7m-16" value="Telefone" style="text;strokeColor=none;fillColor=none;align=left;verticalAlign=middle;spacingLeft=4;spacingRight=4;overflow=hidden;points=[[0,0.5],[1,0.5]];portConstraint=eastwest;rotatable=0;whiteSpace=wrap;html=1;" vertex="1" parent="hx60Nt_0j53-Y6OIGw7m-8">
          <mxGeometry y="120" width="140" height="30" as="geometry" />
        </mxCell>
        <mxCell id="hx60Nt_0j53-Y6OIGw7m-12" value="Produto" style="swimlane;fontStyle=0;childLayout=stackLayout;horizontal=1;startSize=30;horizontalStack=0;resizeParent=1;resizeParentMax=0;resizeLast=0;collapsible=1;marginBottom=0;whiteSpace=wrap;html=1;" vertex="1" parent="1">
          <mxGeometry x="660" y="210" width="140" height="180" as="geometry" />
        </mxCell>
        <mxCell id="hx60Nt_0j53-Y6OIGw7m-13" value="Cód Produto (PK)" style="text;strokeColor=none;fillColor=none;align=left;verticalAlign=middle;spacingLeft=4;spacingRight=4;overflow=hidden;points=[[0,0.5],[1,0.5]];portConstraint=eastwest;rotatable=0;whiteSpace=wrap;html=1;" vertex="1" parent="hx60Nt_0j53-Y6OIGw7m-12">
          <mxGeometry y="30" width="140" height="30" as="geometry" />
        </mxCell>
        <mxCell id="hx60Nt_0j53-Y6OIGw7m-14" value="Nome" style="text;strokeColor=none;fillColor=none;align=left;verticalAlign=middle;spacingLeft=4;spacingRight=4;overflow=hidden;points=[[0,0.5],[1,0.5]];portConstraint=eastwest;rotatable=0;whiteSpace=wrap;html=1;" vertex="1" parent="hx60Nt_0j53-Y6OIGw7m-12">
          <mxGeometry y="60" width="140" height="30" as="geometry" />
        </mxCell>
        <mxCell id="hx60Nt_0j53-Y6OIGw7m-15" value="Descrição" style="text;strokeColor=none;fillColor=none;align=left;verticalAlign=middle;spacingLeft=4;spacingRight=4;overflow=hidden;points=[[0,0.5],[1,0.5]];portConstraint=eastwest;rotatable=0;whiteSpace=wrap;html=1;" vertex="1" parent="hx60Nt_0j53-Y6OIGw7m-12">
          <mxGeometry y="90" width="140" height="30" as="geometry" />
        </mxCell>
        <mxCell id="hx60Nt_0j53-Y6OIGw7m-17" value="Fornecedor" style="text;strokeColor=none;fillColor=none;align=left;verticalAlign=middle;spacingLeft=4;spacingRight=4;overflow=hidden;points=[[0,0.5],[1,0.5]];portConstraint=eastwest;rotatable=0;whiteSpace=wrap;html=1;" vertex="1" parent="hx60Nt_0j53-Y6OIGw7m-12">
          <mxGeometry y="120" width="140" height="30" as="geometry" />
        </mxCell>
        <mxCell id="hx60Nt_0j53-Y6OIGw7m-18" value="Preço" style="text;strokeColor=none;fillColor=none;align=left;verticalAlign=middle;spacingLeft=4;spacingRight=4;overflow=hidden;points=[[0,0.5],[1,0.5]];portConstraint=eastwest;rotatable=0;whiteSpace=wrap;html=1;" vertex="1" parent="hx60Nt_0j53-Y6OIGw7m-12">
          <mxGeometry y="150" width="140" height="30" as="geometry" />
        </mxCell>
        <mxCell id="hx60Nt_0j53-Y6OIGw7m-21" value="Item do Aluguel" style="swimlane;fontStyle=0;childLayout=stackLayout;horizontal=1;startSize=30;horizontalStack=0;resizeParent=1;resizeParentMax=0;resizeLast=0;collapsible=1;marginBottom=0;whiteSpace=wrap;html=1;" vertex="1" parent="1">
          <mxGeometry x="414" y="210" width="140" height="150" as="geometry" />
        </mxCell>
        <mxCell id="hx60Nt_0j53-Y6OIGw7m-22" value="Cód Item (PK)" style="text;strokeColor=none;fillColor=none;align=left;verticalAlign=middle;spacingLeft=4;spacingRight=4;overflow=hidden;points=[[0,0.5],[1,0.5]];portConstraint=eastwest;rotatable=0;whiteSpace=wrap;html=1;" vertex="1" parent="hx60Nt_0j53-Y6OIGw7m-21">
          <mxGeometry y="30" width="140" height="30" as="geometry" />
        </mxCell>
        <mxCell id="hx60Nt_0j53-Y6OIGw7m-38" value="Cód Aluguel (FK)" style="text;strokeColor=none;fillColor=none;align=left;verticalAlign=middle;spacingLeft=4;spacingRight=4;overflow=hidden;points=[[0,0.5],[1,0.5]];portConstraint=eastwest;rotatable=0;whiteSpace=wrap;html=1;" vertex="1" parent="hx60Nt_0j53-Y6OIGw7m-21">
          <mxGeometry y="60" width="140" height="30" as="geometry" />
        </mxCell>
        <mxCell id="hx60Nt_0j53-Y6OIGw7m-24" value="Cód Produto (FK)" style="text;strokeColor=none;fillColor=none;align=left;verticalAlign=middle;spacingLeft=4;spacingRight=4;overflow=hidden;points=[[0,0.5],[1,0.5]];portConstraint=eastwest;rotatable=0;whiteSpace=wrap;html=1;" vertex="1" parent="hx60Nt_0j53-Y6OIGw7m-21">
          <mxGeometry y="90" width="140" height="30" as="geometry" />
        </mxCell>
        <mxCell id="hx60Nt_0j53-Y6OIGw7m-25" value="Quantidade" style="text;strokeColor=none;fillColor=none;align=left;verticalAlign=middle;spacingLeft=4;spacingRight=4;overflow=hidden;points=[[0,0.5],[1,0.5]];portConstraint=eastwest;rotatable=0;whiteSpace=wrap;html=1;" vertex="1" parent="hx60Nt_0j53-Y6OIGw7m-21">
          <mxGeometry y="120" width="140" height="30" as="geometry" />
        </mxCell>
        <mxCell id="hx60Nt_0j53-Y6OIGw7m-30" style="edgeStyle=orthogonalEdgeStyle;rounded=0;orthogonalLoop=1;jettySize=auto;html=1;exitX=1;exitY=0.5;exitDx=0;exitDy=0;" edge="1" parent="1" source="hx60Nt_0j53-Y6OIGw7m-24" target="hx60Nt_0j53-Y6OIGw7m-13">
          <mxGeometry relative="1" as="geometry" />
        </mxCell>
        <mxCell id="hx60Nt_0j53-Y6OIGw7m-31" value="Aluguel" style="swimlane;fontStyle=0;childLayout=stackLayout;horizontal=1;startSize=30;horizontalStack=0;resizeParent=1;resizeParentMax=0;resizeLast=0;collapsible=1;marginBottom=0;whiteSpace=wrap;html=1;" vertex="1" parent="1">
          <mxGeometry x="150" y="210" width="140" height="150" as="geometry" />
        </mxCell>
        <mxCell id="hx60Nt_0j53-Y6OIGw7m-32" value="Cód Aluguel (PK)" style="text;strokeColor=none;fillColor=none;align=left;verticalAlign=middle;spacingLeft=4;spacingRight=4;overflow=hidden;points=[[0,0.5],[1,0.5]];portConstraint=eastwest;rotatable=0;whiteSpace=wrap;html=1;" vertex="1" parent="hx60Nt_0j53-Y6OIGw7m-31">
          <mxGeometry y="30" width="140" height="30" as="geometry" />
        </mxCell>
        <mxCell id="hx60Nt_0j53-Y6OIGw7m-33" value="Cód Cliente (FK)" style="text;strokeColor=none;fillColor=none;align=left;verticalAlign=middle;spacingLeft=4;spacingRight=4;overflow=hidden;points=[[0,0.5],[1,0.5]];portConstraint=eastwest;rotatable=0;whiteSpace=wrap;html=1;" vertex="1" parent="hx60Nt_0j53-Y6OIGw7m-31">
          <mxGeometry y="60" width="140" height="30" as="geometry" />
        </mxCell>
        <mxCell id="hx60Nt_0j53-Y6OIGw7m-26" value="Data" style="text;strokeColor=none;fillColor=none;align=left;verticalAlign=middle;spacingLeft=4;spacingRight=4;overflow=hidden;points=[[0,0.5],[1,0.5]];portConstraint=eastwest;rotatable=0;whiteSpace=wrap;html=1;" vertex="1" parent="hx60Nt_0j53-Y6OIGw7m-31">
          <mxGeometry y="90" width="140" height="30" as="geometry" />
        </mxCell>
        <mxCell id="hx60Nt_0j53-Y6OIGw7m-27" value="Duração" style="text;strokeColor=none;fillColor=none;align=left;verticalAlign=middle;spacingLeft=4;spacingRight=4;overflow=hidden;points=[[0,0.5],[1,0.5]];portConstraint=eastwest;rotatable=0;whiteSpace=wrap;html=1;" vertex="1" parent="hx60Nt_0j53-Y6OIGw7m-31">
          <mxGeometry y="120" width="140" height="30" as="geometry" />
        </mxCell>
        <mxCell id="hx60Nt_0j53-Y6OIGw7m-36" style="edgeStyle=orthogonalEdgeStyle;rounded=0;orthogonalLoop=1;jettySize=auto;html=1;exitX=1;exitY=0.5;exitDx=0;exitDy=0;" edge="1" parent="hx60Nt_0j53-Y6OIGw7m-31" source="hx60Nt_0j53-Y6OIGw7m-33" target="hx60Nt_0j53-Y6OIGw7m-33">
          <mxGeometry relative="1" as="geometry" />
        </mxCell>
        <mxCell id="hx60Nt_0j53-Y6OIGw7m-37" style="edgeStyle=orthogonalEdgeStyle;rounded=0;orthogonalLoop=1;jettySize=auto;html=1;exitX=1;exitY=0.5;exitDx=0;exitDy=0;" edge="1" parent="1" source="hx60Nt_0j53-Y6OIGw7m-9" target="hx60Nt_0j53-Y6OIGw7m-33">
          <mxGeometry relative="1" as="geometry" />
        </mxCell>
        <mxCell id="hx60Nt_0j53-Y6OIGw7m-39" style="edgeStyle=orthogonalEdgeStyle;rounded=0;orthogonalLoop=1;jettySize=auto;html=1;exitX=0;exitY=0.5;exitDx=0;exitDy=0;" edge="1" parent="1" source="hx60Nt_0j53-Y6OIGw7m-38" target="hx60Nt_0j53-Y6OIGw7m-32">
          <mxGeometry relative="1" as="geometry" />
        </mxCell>
        <mxCell id="hx60Nt_0j53-Y6OIGw7m-40" value="Cliente" style="swimlane;fontStyle=0;childLayout=stackLayout;horizontal=1;startSize=30;horizontalStack=0;resizeParent=1;resizeParentMax=0;resizeLast=0;collapsible=1;marginBottom=0;whiteSpace=wrap;html=1;" vertex="1" parent="1">
          <mxGeometry x="88" y="430" width="140" height="150" as="geometry" />
        </mxCell>
        <mxCell id="hx60Nt_0j53-Y6OIGw7m-41" value="Cód Cliente (PK)" style="text;strokeColor=none;fillColor=none;align=left;verticalAlign=middle;spacingLeft=4;spacingRight=4;overflow=hidden;points=[[0,0.5],[1,0.5]];portConstraint=eastwest;rotatable=0;whiteSpace=wrap;html=1;" vertex="1" parent="hx60Nt_0j53-Y6OIGw7m-40">
          <mxGeometry y="30" width="140" height="30" as="geometry" />
        </mxCell>
        <mxCell id="hx60Nt_0j53-Y6OIGw7m-42" value="Nome" style="text;strokeColor=none;fillColor=none;align=left;verticalAlign=middle;spacingLeft=4;spacingRight=4;overflow=hidden;points=[[0,0.5],[1,0.5]];portConstraint=eastwest;rotatable=0;whiteSpace=wrap;html=1;" vertex="1" parent="hx60Nt_0j53-Y6OIGw7m-40">
          <mxGeometry y="60" width="140" height="30" as="geometry" />
        </mxCell>
        <mxCell id="hx60Nt_0j53-Y6OIGw7m-43" value="CPF" style="text;strokeColor=none;fillColor=none;align=left;verticalAlign=middle;spacingLeft=4;spacingRight=4;overflow=hidden;points=[[0,0.5],[1,0.5]];portConstraint=eastwest;rotatable=0;whiteSpace=wrap;html=1;" vertex="1" parent="hx60Nt_0j53-Y6OIGw7m-40">
          <mxGeometry y="90" width="140" height="30" as="geometry" />
        </mxCell>
        <mxCell id="hx60Nt_0j53-Y6OIGw7m-44" value="Telefone" style="text;strokeColor=none;fillColor=none;align=left;verticalAlign=middle;spacingLeft=4;spacingRight=4;overflow=hidden;points=[[0,0.5],[1,0.5]];portConstraint=eastwest;rotatable=0;whiteSpace=wrap;html=1;" vertex="1" parent="hx60Nt_0j53-Y6OIGw7m-40">
          <mxGeometry y="120" width="140" height="30" as="geometry" />
        </mxCell>
        <mxCell id="hx60Nt_0j53-Y6OIGw7m-45" value="Produto" style="swimlane;fontStyle=0;childLayout=stackLayout;horizontal=1;startSize=30;horizontalStack=0;resizeParent=1;resizeParentMax=0;resizeLast=0;collapsible=1;marginBottom=0;whiteSpace=wrap;html=1;" vertex="1" parent="1">
          <mxGeometry x="352" y="430" width="140" height="210" as="geometry" />
        </mxCell>
        <mxCell id="hx60Nt_0j53-Y6OIGw7m-46" value="Cód Produto (PK)" style="text;strokeColor=none;fillColor=none;align=left;verticalAlign=middle;spacingLeft=4;spacingRight=4;overflow=hidden;points=[[0,0.5],[1,0.5]];portConstraint=eastwest;rotatable=0;whiteSpace=wrap;html=1;" vertex="1" parent="hx60Nt_0j53-Y6OIGw7m-45">
          <mxGeometry y="30" width="140" height="30" as="geometry" />
        </mxCell>
        <mxCell id="hx60Nt_0j53-Y6OIGw7m-47" value="Nome" style="text;strokeColor=none;fillColor=none;align=left;verticalAlign=middle;spacingLeft=4;spacingRight=4;overflow=hidden;points=[[0,0.5],[1,0.5]];portConstraint=eastwest;rotatable=0;whiteSpace=wrap;html=1;" vertex="1" parent="hx60Nt_0j53-Y6OIGw7m-45">
          <mxGeometry y="60" width="140" height="30" as="geometry" />
        </mxCell>
        <mxCell id="hx60Nt_0j53-Y6OIGw7m-48" value="Descrição" style="text;strokeColor=none;fillColor=none;align=left;verticalAlign=middle;spacingLeft=4;spacingRight=4;overflow=hidden;points=[[0,0.5],[1,0.5]];portConstraint=eastwest;rotatable=0;whiteSpace=wrap;html=1;" vertex="1" parent="hx60Nt_0j53-Y6OIGw7m-45">
          <mxGeometry y="90" width="140" height="30" as="geometry" />
        </mxCell>
        <mxCell id="hx60Nt_0j53-Y6OIGw7m-49" value="Fornecedor" style="text;strokeColor=none;fillColor=none;align=left;verticalAlign=middle;spacingLeft=4;spacingRight=4;overflow=hidden;points=[[0,0.5],[1,0.5]];portConstraint=eastwest;rotatable=0;whiteSpace=wrap;html=1;" vertex="1" parent="hx60Nt_0j53-Y6OIGw7m-45">
          <mxGeometry y="120" width="140" height="30" as="geometry" />
        </mxCell>
        <mxCell id="hx60Nt_0j53-Y6OIGw7m-50" value="Preço" style="text;strokeColor=none;fillColor=none;align=left;verticalAlign=middle;spacingLeft=4;spacingRight=4;overflow=hidden;points=[[0,0.5],[1,0.5]];portConstraint=eastwest;rotatable=0;whiteSpace=wrap;html=1;" vertex="1" parent="hx60Nt_0j53-Y6OIGw7m-45">
          <mxGeometry y="150" width="140" height="30" as="geometry" />
        </mxCell>
        <mxCell id="hx60Nt_0j53-Y6OIGw7m-52" value="Cód Cliente (FK)" style="text;strokeColor=none;fillColor=none;align=left;verticalAlign=middle;spacingLeft=4;spacingRight=4;overflow=hidden;points=[[0,0.5],[1,0.5]];portConstraint=eastwest;rotatable=0;whiteSpace=wrap;html=1;" vertex="1" parent="hx60Nt_0j53-Y6OIGw7m-45">
          <mxGeometry y="180" width="140" height="30" as="geometry" />
        </mxCell>
        <mxCell id="hx60Nt_0j53-Y6OIGw7m-53" style="edgeStyle=orthogonalEdgeStyle;rounded=0;orthogonalLoop=1;jettySize=auto;html=1;exitX=1;exitY=0.5;exitDx=0;exitDy=0;entryX=0;entryY=0.5;entryDx=0;entryDy=0;" edge="1" parent="1" source="hx60Nt_0j53-Y6OIGw7m-41" target="hx60Nt_0j53-Y6OIGw7m-52">
          <mxGeometry relative="1" as="geometry" />
        </mxCell>
        <mxCell id="hx60Nt_0j53-Y6OIGw7m-54" value="1" style="text;html=1;align=center;verticalAlign=middle;resizable=0;points=[];autosize=1;strokeColor=none;fillColor=none;" vertex="1" parent="1">
          <mxGeometry x="240" y="438" width="30" height="30" as="geometry" />
        </mxCell>
        <mxCell id="hx60Nt_0j53-Y6OIGw7m-55" value="N" style="text;html=1;align=center;verticalAlign=middle;resizable=0;points=[];autosize=1;strokeColor=none;fillColor=none;" vertex="1" parent="1">
          <mxGeometry x="315" y="578" width="30" height="30" as="geometry" />
        </mxCell>
        <mxCell id="hx60Nt_0j53-Y6OIGw7m-56" value="N" style="text;html=1;align=center;verticalAlign=middle;resizable=0;points=[];autosize=1;strokeColor=none;fillColor=none;" vertex="1" parent="1">
          <mxGeometry x="115" y="248" width="30" height="30" as="geometry" />
        </mxCell>
        <mxCell id="hx60Nt_0j53-Y6OIGw7m-57" value="1" style="text;html=1;align=center;verticalAlign=middle;resizable=0;points=[];autosize=1;strokeColor=none;fillColor=none;" vertex="1" parent="1">
          <mxGeometry x="55" y="208" width="30" height="30" as="geometry" />
        </mxCell>
        <mxCell id="hx60Nt_0j53-Y6OIGw7m-58" value="N" style="text;html=1;align=center;verticalAlign=middle;resizable=0;points=[];autosize=1;strokeColor=none;fillColor=none;" vertex="1" parent="1">
          <mxGeometry x="375" y="248" width="30" height="30" as="geometry" />
        </mxCell>
        <mxCell id="hx60Nt_0j53-Y6OIGw7m-59" value="1" style="text;html=1;align=center;verticalAlign=middle;resizable=0;points=[];autosize=1;strokeColor=none;fillColor=none;" vertex="1" parent="1">
          <mxGeometry x="305" y="218" width="30" height="30" as="geometry" />
        </mxCell>
        <mxCell id="hx60Nt_0j53-Y6OIGw7m-60" value="1" style="text;html=1;align=center;verticalAlign=middle;resizable=0;points=[];autosize=1;strokeColor=none;fillColor=none;" vertex="1" parent="1">
          <mxGeometry x="625" y="218" width="30" height="30" as="geometry" />
        </mxCell>
        <mxCell id="hx60Nt_0j53-Y6OIGw7m-61" value="N" style="text;html=1;align=center;verticalAlign=middle;resizable=0;points=[];autosize=1;strokeColor=none;fillColor=none;" vertex="1" parent="1">
          <mxGeometry x="565" y="278" width="30" height="30" as="geometry" />
        </mxCell>
      </root>
    </mxGraphModel>
  </diagram>
  <diagram id="q1xukiQcBL89fhifhAJa" name="Página-2">
    <mxGraphModel dx="662" dy="378" grid="1" gridSize="10" guides="1" tooltips="1" connect="1" arrows="1" fold="1" page="1" pageScale="1" pageWidth="827" pageHeight="1169" math="0" shadow="0">
      <root>
        <mxCell id="0" />
        <mxCell id="1" parent="0" />
        <mxCell id="Q9u6gidSZBuBXPQ9qShj-5" style="edgeStyle=orthogonalEdgeStyle;rounded=0;orthogonalLoop=1;jettySize=auto;html=1;exitX=1;exitY=0.5;exitDx=0;exitDy=0;endArrow=none;endFill=0;" edge="1" parent="1" source="Q9u6gidSZBuBXPQ9qShj-1" target="Q9u6gidSZBuBXPQ9qShj-3">
          <mxGeometry relative="1" as="geometry" />
        </mxCell>
        <mxCell id="Q9u6gidSZBuBXPQ9qShj-1" value="Morador" style="rounded=0;whiteSpace=wrap;html=1;" vertex="1" parent="1">
          <mxGeometry x="110" y="170" width="120" height="60" as="geometry" />
        </mxCell>
        <mxCell id="Q9u6gidSZBuBXPQ9qShj-3" value="Propriedade" style="rounded=0;whiteSpace=wrap;html=1;" vertex="1" parent="1">
          <mxGeometry x="400" y="170" width="120" height="60" as="geometry" />
        </mxCell>
        <mxCell id="Q9u6gidSZBuBXPQ9qShj-7" style="edgeStyle=orthogonalEdgeStyle;rounded=0;orthogonalLoop=1;jettySize=auto;html=1;exitX=0;exitY=0.5;exitDx=0;exitDy=0;entryX=1;entryY=0.5;entryDx=0;entryDy=0;endArrow=none;endFill=0;" edge="1" parent="1" source="Q9u6gidSZBuBXPQ9qShj-4" target="Q9u6gidSZBuBXPQ9qShj-3">
          <mxGeometry relative="1" as="geometry" />
        </mxCell>
        <mxCell id="Q9u6gidSZBuBXPQ9qShj-4" value="Vaga" style="rounded=0;whiteSpace=wrap;html=1;" vertex="1" parent="1">
          <mxGeometry x="670" y="170" width="120" height="60" as="geometry" />
        </mxCell>
        <mxCell id="Q9u6gidSZBuBXPQ9qShj-8" value="Mora" style="rhombus;whiteSpace=wrap;html=1;" vertex="1" parent="1">
          <mxGeometry x="270" y="160" width="80" height="80" as="geometry" />
        </mxCell>
        <mxCell id="Q9u6gidSZBuBXPQ9qShj-13" value="Possui" style="rhombus;whiteSpace=wrap;html=1;" vertex="1" parent="1">
          <mxGeometry x="560" y="160" width="80" height="80" as="geometry" />
        </mxCell>
        <mxCell id="Q9u6gidSZBuBXPQ9qShj-14" value="1" style="text;html=1;align=center;verticalAlign=middle;resizable=0;points=[];autosize=1;strokeColor=none;fillColor=none;" vertex="1" parent="1">
          <mxGeometry x="365" y="168" width="30" height="30" as="geometry" />
        </mxCell>
        <mxCell id="Q9u6gidSZBuBXPQ9qShj-15" value="1" style="text;html=1;align=center;verticalAlign=middle;resizable=0;points=[];autosize=1;strokeColor=none;fillColor=none;" vertex="1" parent="1">
          <mxGeometry x="230" y="168" width="30" height="30" as="geometry" />
        </mxCell>
        <mxCell id="Q9u6gidSZBuBXPQ9qShj-16" value="N" style="text;html=1;align=center;verticalAlign=middle;resizable=0;points=[];autosize=1;strokeColor=none;fillColor=none;" vertex="1" parent="1">
          <mxGeometry x="635" y="168" width="30" height="30" as="geometry" />
        </mxCell>
        <mxCell id="Q9u6gidSZBuBXPQ9qShj-17" value="1" style="text;html=1;align=center;verticalAlign=middle;resizable=0;points=[];autosize=1;strokeColor=none;fillColor=none;" vertex="1" parent="1">
          <mxGeometry x="520" y="168" width="30" height="30" as="geometry" />
        </mxCell>
        <mxCell id="Q9u6gidSZBuBXPQ9qShj-18" value="Morador" style="swimlane;fontStyle=0;childLayout=stackLayout;horizontal=1;startSize=30;horizontalStack=0;resizeParent=1;resizeParentMax=0;resizeLast=0;collapsible=1;marginBottom=0;whiteSpace=wrap;html=1;" vertex="1" parent="1">
          <mxGeometry x="100" y="280" width="140" height="150" as="geometry" />
        </mxCell>
        <mxCell id="Q9u6gidSZBuBXPQ9qShj-19" value="Cód Morador (PK)" style="text;strokeColor=none;fillColor=none;align=left;verticalAlign=middle;spacingLeft=4;spacingRight=4;overflow=hidden;points=[[0,0.5],[1,0.5]];portConstraint=eastwest;rotatable=0;whiteSpace=wrap;html=1;" vertex="1" parent="Q9u6gidSZBuBXPQ9qShj-18">
          <mxGeometry y="30" width="140" height="30" as="geometry" />
        </mxCell>
        <mxCell id="Q9u6gidSZBuBXPQ9qShj-20" value="Nome" style="text;strokeColor=none;fillColor=none;align=left;verticalAlign=middle;spacingLeft=4;spacingRight=4;overflow=hidden;points=[[0,0.5],[1,0.5]];portConstraint=eastwest;rotatable=0;whiteSpace=wrap;html=1;" vertex="1" parent="Q9u6gidSZBuBXPQ9qShj-18">
          <mxGeometry y="60" width="140" height="30" as="geometry" />
        </mxCell>
        <mxCell id="Q9u6gidSZBuBXPQ9qShj-21" value="CPF" style="text;strokeColor=none;fillColor=none;align=left;verticalAlign=middle;spacingLeft=4;spacingRight=4;overflow=hidden;points=[[0,0.5],[1,0.5]];portConstraint=eastwest;rotatable=0;whiteSpace=wrap;html=1;" vertex="1" parent="Q9u6gidSZBuBXPQ9qShj-18">
          <mxGeometry y="90" width="140" height="30" as="geometry" />
        </mxCell>
        <mxCell id="Q9u6gidSZBuBXPQ9qShj-32" value="Cód Propriedade (FK)" style="text;strokeColor=none;fillColor=none;align=left;verticalAlign=middle;spacingLeft=4;spacingRight=4;overflow=hidden;points=[[0,0.5],[1,0.5]];portConstraint=eastwest;rotatable=0;whiteSpace=wrap;html=1;" vertex="1" parent="Q9u6gidSZBuBXPQ9qShj-18">
          <mxGeometry y="120" width="140" height="30" as="geometry" />
        </mxCell>
        <mxCell id="Q9u6gidSZBuBXPQ9qShj-22" value="Propriedade" style="swimlane;fontStyle=0;childLayout=stackLayout;horizontal=1;startSize=30;horizontalStack=0;resizeParent=1;resizeParentMax=0;resizeLast=0;collapsible=1;marginBottom=0;whiteSpace=wrap;html=1;" vertex="1" parent="1">
          <mxGeometry x="390" y="280" width="140" height="180" as="geometry" />
        </mxCell>
        <mxCell id="Q9u6gidSZBuBXPQ9qShj-23" value="Cód Propriedade (PK)" style="text;strokeColor=none;fillColor=none;align=left;verticalAlign=middle;spacingLeft=4;spacingRight=4;overflow=hidden;points=[[0,0.5],[1,0.5]];portConstraint=eastwest;rotatable=0;whiteSpace=wrap;html=1;" vertex="1" parent="Q9u6gidSZBuBXPQ9qShj-22">
          <mxGeometry y="30" width="140" height="30" as="geometry" />
        </mxCell>
        <mxCell id="Q9u6gidSZBuBXPQ9qShj-24" value="Número" style="text;strokeColor=none;fillColor=none;align=left;verticalAlign=middle;spacingLeft=4;spacingRight=4;overflow=hidden;points=[[0,0.5],[1,0.5]];portConstraint=eastwest;rotatable=0;whiteSpace=wrap;html=1;" vertex="1" parent="Q9u6gidSZBuBXPQ9qShj-22">
          <mxGeometry y="60" width="140" height="30" as="geometry" />
        </mxCell>
        <mxCell id="Q9u6gidSZBuBXPQ9qShj-25" value="Bloco" style="text;strokeColor=none;fillColor=none;align=left;verticalAlign=middle;spacingLeft=4;spacingRight=4;overflow=hidden;points=[[0,0.5],[1,0.5]];portConstraint=eastwest;rotatable=0;whiteSpace=wrap;html=1;" vertex="1" parent="Q9u6gidSZBuBXPQ9qShj-22">
          <mxGeometry y="90" width="140" height="30" as="geometry" />
        </mxCell>
        <mxCell id="Q9u6gidSZBuBXPQ9qShj-30" value="Área Construída" style="text;strokeColor=none;fillColor=none;align=left;verticalAlign=middle;spacingLeft=4;spacingRight=4;overflow=hidden;points=[[0,0.5],[1,0.5]];portConstraint=eastwest;rotatable=0;whiteSpace=wrap;html=1;" vertex="1" parent="Q9u6gidSZBuBXPQ9qShj-22">
          <mxGeometry y="120" width="140" height="30" as="geometry" />
        </mxCell>
        <mxCell id="Q9u6gidSZBuBXPQ9qShj-34" value="Situação" style="text;strokeColor=none;fillColor=none;align=left;verticalAlign=middle;spacingLeft=4;spacingRight=4;overflow=hidden;points=[[0,0.5],[1,0.5]];portConstraint=eastwest;rotatable=0;whiteSpace=wrap;html=1;" vertex="1" parent="Q9u6gidSZBuBXPQ9qShj-22">
          <mxGeometry y="150" width="140" height="30" as="geometry" />
        </mxCell>
        <mxCell id="Q9u6gidSZBuBXPQ9qShj-26" value="Vaga" style="swimlane;fontStyle=0;childLayout=stackLayout;horizontal=1;startSize=30;horizontalStack=0;resizeParent=1;resizeParentMax=0;resizeLast=0;collapsible=1;marginBottom=0;whiteSpace=wrap;html=1;" vertex="1" parent="1">
          <mxGeometry x="660" y="280" width="140" height="150" as="geometry" />
        </mxCell>
        <mxCell id="Q9u6gidSZBuBXPQ9qShj-27" value="Cód Vaga (PK)" style="text;strokeColor=none;fillColor=none;align=left;verticalAlign=middle;spacingLeft=4;spacingRight=4;overflow=hidden;points=[[0,0.5],[1,0.5]];portConstraint=eastwest;rotatable=0;whiteSpace=wrap;html=1;" vertex="1" parent="Q9u6gidSZBuBXPQ9qShj-26">
          <mxGeometry y="30" width="140" height="30" as="geometry" />
        </mxCell>
        <mxCell id="Q9u6gidSZBuBXPQ9qShj-28" value="Número" style="text;strokeColor=none;fillColor=none;align=left;verticalAlign=middle;spacingLeft=4;spacingRight=4;overflow=hidden;points=[[0,0.5],[1,0.5]];portConstraint=eastwest;rotatable=0;whiteSpace=wrap;html=1;" vertex="1" parent="Q9u6gidSZBuBXPQ9qShj-26">
          <mxGeometry y="60" width="140" height="30" as="geometry" />
        </mxCell>
        <mxCell id="Q9u6gidSZBuBXPQ9qShj-29" value="Bloco" style="text;strokeColor=none;fillColor=none;align=left;verticalAlign=middle;spacingLeft=4;spacingRight=4;overflow=hidden;points=[[0,0.5],[1,0.5]];portConstraint=eastwest;rotatable=0;whiteSpace=wrap;html=1;" vertex="1" parent="Q9u6gidSZBuBXPQ9qShj-26">
          <mxGeometry y="90" width="140" height="30" as="geometry" />
        </mxCell>
        <mxCell id="Q9u6gidSZBuBXPQ9qShj-35" value="Cód Propriedade (FK)" style="text;strokeColor=none;fillColor=none;align=left;verticalAlign=middle;spacingLeft=4;spacingRight=4;overflow=hidden;points=[[0,0.5],[1,0.5]];portConstraint=eastwest;rotatable=0;whiteSpace=wrap;html=1;" vertex="1" parent="Q9u6gidSZBuBXPQ9qShj-26">
          <mxGeometry y="120" width="140" height="30" as="geometry" />
        </mxCell>
        <mxCell id="Q9u6gidSZBuBXPQ9qShj-33" style="edgeStyle=orthogonalEdgeStyle;rounded=0;orthogonalLoop=1;jettySize=auto;html=1;exitX=1;exitY=0.5;exitDx=0;exitDy=0;entryX=0;entryY=0.5;entryDx=0;entryDy=0;endArrow=none;endFill=0;" edge="1" parent="1" source="Q9u6gidSZBuBXPQ9qShj-32" target="Q9u6gidSZBuBXPQ9qShj-23">
          <mxGeometry relative="1" as="geometry" />
        </mxCell>
        <mxCell id="Q9u6gidSZBuBXPQ9qShj-36" style="edgeStyle=orthogonalEdgeStyle;rounded=0;orthogonalLoop=1;jettySize=auto;html=1;exitX=1;exitY=0.5;exitDx=0;exitDy=0;entryX=0;entryY=0.5;entryDx=0;entryDy=0;endArrow=none;endFill=0;" edge="1" parent="1" source="Q9u6gidSZBuBXPQ9qShj-23" target="Q9u6gidSZBuBXPQ9qShj-35">
          <mxGeometry relative="1" as="geometry" />
        </mxCell>
      </root>
    </mxGraphModel>
  </diagram>
  <diagram id="QjKqKX3W7E66Dx2aMnVt" name="Página-3">
    <mxGraphModel dx="1375" dy="313" grid="1" gridSize="10" guides="1" tooltips="1" connect="1" arrows="1" fold="1" page="1" pageScale="1" pageWidth="827" pageHeight="1169" math="0" shadow="0">
      <root>
        <mxCell id="0" />
        <mxCell id="1" parent="0" />
        <mxCell id="yIiP_362XO5cFeMT4ENc-5" style="edgeStyle=orthogonalEdgeStyle;rounded=0;orthogonalLoop=1;jettySize=auto;html=1;exitX=1;exitY=0.5;exitDx=0;exitDy=0;entryX=0;entryY=0.5;entryDx=0;entryDy=0;endArrow=none;endFill=0;" edge="1" parent="1" source="yIiP_362XO5cFeMT4ENc-1" target="yIiP_362XO5cFeMT4ENc-4">
          <mxGeometry relative="1" as="geometry" />
        </mxCell>
        <mxCell id="yIiP_362XO5cFeMT4ENc-1" value="Condomínio" style="rounded=0;whiteSpace=wrap;html=1;" vertex="1" parent="1">
          <mxGeometry x="-10" y="170" width="120" height="60" as="geometry" />
        </mxCell>
        <mxCell id="yIiP_362XO5cFeMT4ENc-2" value="Propriedade" style="rounded=0;whiteSpace=wrap;html=1;" vertex="1" parent="1">
          <mxGeometry x="310" y="170" width="120" height="60" as="geometry" />
        </mxCell>
        <mxCell id="yIiP_362XO5cFeMT4ENc-9" style="edgeStyle=orthogonalEdgeStyle;rounded=0;orthogonalLoop=1;jettySize=auto;html=1;exitX=0;exitY=0.25;exitDx=0;exitDy=0;entryX=1;entryY=0.5;entryDx=0;entryDy=0;endArrow=none;endFill=0;" edge="1" parent="1" source="yIiP_362XO5cFeMT4ENc-3" target="yIiP_362XO5cFeMT4ENc-7">
          <mxGeometry relative="1" as="geometry" />
        </mxCell>
        <mxCell id="yIiP_362XO5cFeMT4ENc-3" value="Pessoa" style="rounded=0;whiteSpace=wrap;html=1;" vertex="1" parent="1">
          <mxGeometry x="550" y="170" width="120" height="60" as="geometry" />
        </mxCell>
        <mxCell id="yIiP_362XO5cFeMT4ENc-6" style="edgeStyle=orthogonalEdgeStyle;rounded=0;orthogonalLoop=1;jettySize=auto;html=1;exitX=1;exitY=0.5;exitDx=0;exitDy=0;endArrow=none;endFill=0;" edge="1" parent="1" source="yIiP_362XO5cFeMT4ENc-4" target="yIiP_362XO5cFeMT4ENc-2">
          <mxGeometry relative="1" as="geometry" />
        </mxCell>
        <mxCell id="yIiP_362XO5cFeMT4ENc-4" value="Formado por" style="rhombus;whiteSpace=wrap;html=1;" vertex="1" parent="1">
          <mxGeometry x="170" y="160" width="80" height="80" as="geometry" />
        </mxCell>
        <mxCell id="yIiP_362XO5cFeMT4ENc-10" style="edgeStyle=orthogonalEdgeStyle;rounded=0;orthogonalLoop=1;jettySize=auto;html=1;exitX=0;exitY=0.5;exitDx=0;exitDy=0;entryX=1;entryY=0.25;entryDx=0;entryDy=0;endArrow=none;endFill=0;" edge="1" parent="1" source="yIiP_362XO5cFeMT4ENc-7" target="yIiP_362XO5cFeMT4ENc-2">
          <mxGeometry relative="1" as="geometry" />
        </mxCell>
        <mxCell id="yIiP_362XO5cFeMT4ENc-7" value="possui" style="rhombus;whiteSpace=wrap;html=1;" vertex="1" parent="1">
          <mxGeometry x="450" y="60" width="80" height="80" as="geometry" />
        </mxCell>
        <mxCell id="yIiP_362XO5cFeMT4ENc-11" style="edgeStyle=orthogonalEdgeStyle;rounded=0;orthogonalLoop=1;jettySize=auto;html=1;exitX=1;exitY=0.5;exitDx=0;exitDy=0;entryX=0;entryY=0.75;entryDx=0;entryDy=0;endArrow=none;endFill=0;" edge="1" parent="1" source="yIiP_362XO5cFeMT4ENc-8" target="yIiP_362XO5cFeMT4ENc-3">
          <mxGeometry relative="1" as="geometry">
            <Array as="points">
              <mxPoint x="540" y="290" />
              <mxPoint x="540" y="230" />
              <mxPoint x="530" y="230" />
              <mxPoint x="530" y="215" />
            </Array>
          </mxGeometry>
        </mxCell>
        <mxCell id="yIiP_362XO5cFeMT4ENc-12" style="edgeStyle=orthogonalEdgeStyle;rounded=0;orthogonalLoop=1;jettySize=auto;html=1;exitX=0;exitY=0.5;exitDx=0;exitDy=0;entryX=1;entryY=0.75;entryDx=0;entryDy=0;endArrow=none;endFill=0;" edge="1" parent="1" source="yIiP_362XO5cFeMT4ENc-8" target="yIiP_362XO5cFeMT4ENc-2">
          <mxGeometry relative="1" as="geometry">
            <Array as="points">
              <mxPoint x="440" y="290" />
              <mxPoint x="440" y="230" />
              <mxPoint x="450" y="230" />
              <mxPoint x="450" y="215" />
            </Array>
          </mxGeometry>
        </mxCell>
        <mxCell id="yIiP_362XO5cFeMT4ENc-8" value="aluga" style="rhombus;whiteSpace=wrap;html=1;" vertex="1" parent="1">
          <mxGeometry x="450" y="250" width="80" height="80" as="geometry" />
        </mxCell>
        <mxCell id="yIiP_362XO5cFeMT4ENc-13" value="N" style="text;html=1;align=center;verticalAlign=middle;resizable=0;points=[];autosize=1;strokeColor=none;fillColor=none;" vertex="1" parent="1">
          <mxGeometry x="275" y="158" width="30" height="30" as="geometry" />
        </mxCell>
        <mxCell id="yIiP_362XO5cFeMT4ENc-14" value="1" style="text;html=1;align=center;verticalAlign=middle;resizable=0;points=[];autosize=1;strokeColor=none;fillColor=none;" vertex="1" parent="1">
          <mxGeometry x="110" y="158" width="30" height="30" as="geometry" />
        </mxCell>
        <mxCell id="yIiP_362XO5cFeMT4ENc-15" value="N" style="text;html=1;align=center;verticalAlign=middle;resizable=0;points=[];autosize=1;strokeColor=none;fillColor=none;" vertex="1" parent="1">
          <mxGeometry x="399" y="138" width="30" height="30" as="geometry" />
        </mxCell>
        <mxCell id="yIiP_362XO5cFeMT4ENc-16" value="N" style="text;html=1;align=center;verticalAlign=middle;resizable=0;points=[];autosize=1;strokeColor=none;fillColor=none;" vertex="1" parent="1">
          <mxGeometry x="555" y="138" width="30" height="30" as="geometry" />
        </mxCell>
        <mxCell id="yIiP_362XO5cFeMT4ENc-17" value="1" style="text;html=1;align=center;verticalAlign=middle;resizable=0;points=[];autosize=1;strokeColor=none;fillColor=none;" vertex="1" parent="1">
          <mxGeometry x="555" y="230" width="30" height="30" as="geometry" />
        </mxCell>
        <mxCell id="yIiP_362XO5cFeMT4ENc-18" value="N" style="text;html=1;align=center;verticalAlign=middle;resizable=0;points=[];autosize=1;strokeColor=none;fillColor=none;" vertex="1" parent="1">
          <mxGeometry x="395" y="228" width="30" height="30" as="geometry" />
        </mxCell>
        <mxCell id="BoF2zBruYuXJP3fgTU4w-1" value="Condomínio" style="swimlane;fontStyle=0;childLayout=stackLayout;horizontal=1;startSize=30;horizontalStack=0;resizeParent=1;resizeParentMax=0;resizeLast=0;collapsible=1;marginBottom=0;whiteSpace=wrap;html=1;" vertex="1" parent="1">
          <mxGeometry x="-20" y="350" width="140" height="150" as="geometry" />
        </mxCell>
        <mxCell id="BoF2zBruYuXJP3fgTU4w-2" value="Cod Condomínio (PK)" style="text;strokeColor=none;fillColor=none;align=left;verticalAlign=middle;spacingLeft=4;spacingRight=4;overflow=hidden;points=[[0,0.5],[1,0.5]];portConstraint=eastwest;rotatable=0;whiteSpace=wrap;html=1;" vertex="1" parent="BoF2zBruYuXJP3fgTU4w-1">
          <mxGeometry y="30" width="140" height="30" as="geometry" />
        </mxCell>
        <mxCell id="BoF2zBruYuXJP3fgTU4w-3" value="Nome" style="text;strokeColor=none;fillColor=none;align=left;verticalAlign=middle;spacingLeft=4;spacingRight=4;overflow=hidden;points=[[0,0.5],[1,0.5]];portConstraint=eastwest;rotatable=0;whiteSpace=wrap;html=1;" vertex="1" parent="BoF2zBruYuXJP3fgTU4w-1">
          <mxGeometry y="60" width="140" height="30" as="geometry" />
        </mxCell>
        <mxCell id="BoF2zBruYuXJP3fgTU4w-5" value="Endereço" style="text;strokeColor=none;fillColor=none;align=left;verticalAlign=middle;spacingLeft=4;spacingRight=4;overflow=hidden;points=[[0,0.5],[1,0.5]];portConstraint=eastwest;rotatable=0;whiteSpace=wrap;html=1;" vertex="1" parent="BoF2zBruYuXJP3fgTU4w-1">
          <mxGeometry y="90" width="140" height="30" as="geometry" />
        </mxCell>
        <mxCell id="BoF2zBruYuXJP3fgTU4w-6" value="Telefone" style="text;strokeColor=none;fillColor=none;align=left;verticalAlign=middle;spacingLeft=4;spacingRight=4;overflow=hidden;points=[[0,0.5],[1,0.5]];portConstraint=eastwest;rotatable=0;whiteSpace=wrap;html=1;" vertex="1" parent="BoF2zBruYuXJP3fgTU4w-1">
          <mxGeometry y="120" width="140" height="30" as="geometry" />
        </mxCell>
        <mxCell id="BoF2zBruYuXJP3fgTU4w-7" value="Propriedade" style="swimlane;fontStyle=0;childLayout=stackLayout;horizontal=1;startSize=30;horizontalStack=0;resizeParent=1;resizeParentMax=0;resizeLast=0;collapsible=1;marginBottom=0;whiteSpace=wrap;html=1;" vertex="1" parent="1">
          <mxGeometry x="300" y="350" width="140" height="240" as="geometry" />
        </mxCell>
        <mxCell id="BoF2zBruYuXJP3fgTU4w-8" value="Cod Propriedade (PK)" style="text;strokeColor=none;fillColor=none;align=left;verticalAlign=middle;spacingLeft=4;spacingRight=4;overflow=hidden;points=[[0,0.5],[1,0.5]];portConstraint=eastwest;rotatable=0;whiteSpace=wrap;html=1;" vertex="1" parent="BoF2zBruYuXJP3fgTU4w-7">
          <mxGeometry y="30" width="140" height="30" as="geometry" />
        </mxCell>
        <mxCell id="BoF2zBruYuXJP3fgTU4w-9" value="Número" style="text;strokeColor=none;fillColor=none;align=left;verticalAlign=middle;spacingLeft=4;spacingRight=4;overflow=hidden;points=[[0,0.5],[1,0.5]];portConstraint=eastwest;rotatable=0;whiteSpace=wrap;html=1;" vertex="1" parent="BoF2zBruYuXJP3fgTU4w-7">
          <mxGeometry y="60" width="140" height="30" as="geometry" />
        </mxCell>
        <mxCell id="BoF2zBruYuXJP3fgTU4w-10" value="Bloco" style="text;strokeColor=none;fillColor=none;align=left;verticalAlign=middle;spacingLeft=4;spacingRight=4;overflow=hidden;points=[[0,0.5],[1,0.5]];portConstraint=eastwest;rotatable=0;whiteSpace=wrap;html=1;" vertex="1" parent="BoF2zBruYuXJP3fgTU4w-7">
          <mxGeometry y="90" width="140" height="30" as="geometry" />
        </mxCell>
        <mxCell id="BoF2zBruYuXJP3fgTU4w-11" value="Área" style="text;strokeColor=none;fillColor=none;align=left;verticalAlign=middle;spacingLeft=4;spacingRight=4;overflow=hidden;points=[[0,0.5],[1,0.5]];portConstraint=eastwest;rotatable=0;whiteSpace=wrap;html=1;" vertex="1" parent="BoF2zBruYuXJP3fgTU4w-7">
          <mxGeometry y="120" width="140" height="30" as="geometry" />
        </mxCell>
        <mxCell id="BoF2zBruYuXJP3fgTU4w-12" value="Quartos" style="text;strokeColor=none;fillColor=none;align=left;verticalAlign=middle;spacingLeft=4;spacingRight=4;overflow=hidden;points=[[0,0.5],[1,0.5]];portConstraint=eastwest;rotatable=0;whiteSpace=wrap;html=1;" vertex="1" parent="BoF2zBruYuXJP3fgTU4w-7">
          <mxGeometry y="150" width="140" height="30" as="geometry" />
        </mxCell>
        <mxCell id="BoF2zBruYuXJP3fgTU4w-13" value="Banheiros" style="text;strokeColor=none;fillColor=none;align=left;verticalAlign=middle;spacingLeft=4;spacingRight=4;overflow=hidden;points=[[0,0.5],[1,0.5]];portConstraint=eastwest;rotatable=0;whiteSpace=wrap;html=1;" vertex="1" parent="BoF2zBruYuXJP3fgTU4w-7">
          <mxGeometry y="180" width="140" height="30" as="geometry" />
        </mxCell>
        <mxCell id="BoF2zBruYuXJP3fgTU4w-14" value="Cod Condomínio (FK)" style="text;strokeColor=none;fillColor=none;align=left;verticalAlign=middle;spacingLeft=4;spacingRight=4;overflow=hidden;points=[[0,0.5],[1,0.5]];portConstraint=eastwest;rotatable=0;whiteSpace=wrap;html=1;" vertex="1" parent="BoF2zBruYuXJP3fgTU4w-7">
          <mxGeometry y="210" width="140" height="30" as="geometry" />
        </mxCell>
        <mxCell id="BoF2zBruYuXJP3fgTU4w-15" style="edgeStyle=orthogonalEdgeStyle;rounded=0;orthogonalLoop=1;jettySize=auto;html=1;exitX=1;exitY=0.5;exitDx=0;exitDy=0;endArrow=none;endFill=0;" edge="1" parent="1" source="BoF2zBruYuXJP3fgTU4w-2" target="BoF2zBruYuXJP3fgTU4w-14">
          <mxGeometry relative="1" as="geometry" />
        </mxCell>
        <mxCell id="BoF2zBruYuXJP3fgTU4w-16" value="Pessoa" style="swimlane;fontStyle=0;childLayout=stackLayout;horizontal=1;startSize=30;horizontalStack=0;resizeParent=1;resizeParentMax=0;resizeLast=0;collapsible=1;marginBottom=0;whiteSpace=wrap;html=1;" vertex="1" parent="1">
          <mxGeometry x="827" y="450" width="140" height="180" as="geometry" />
        </mxCell>
        <mxCell id="BoF2zBruYuXJP3fgTU4w-17" value="Cód Pessoa (PK)" style="text;strokeColor=none;fillColor=none;align=left;verticalAlign=middle;spacingLeft=4;spacingRight=4;overflow=hidden;points=[[0,0.5],[1,0.5]];portConstraint=eastwest;rotatable=0;whiteSpace=wrap;html=1;" vertex="1" parent="BoF2zBruYuXJP3fgTU4w-16">
          <mxGeometry y="30" width="140" height="30" as="geometry" />
        </mxCell>
        <mxCell id="BoF2zBruYuXJP3fgTU4w-18" value="Nome" style="text;strokeColor=none;fillColor=none;align=left;verticalAlign=middle;spacingLeft=4;spacingRight=4;overflow=hidden;points=[[0,0.5],[1,0.5]];portConstraint=eastwest;rotatable=0;whiteSpace=wrap;html=1;" vertex="1" parent="BoF2zBruYuXJP3fgTU4w-16">
          <mxGeometry y="60" width="140" height="30" as="geometry" />
        </mxCell>
        <mxCell id="BoF2zBruYuXJP3fgTU4w-19" value="CPF" style="text;strokeColor=none;fillColor=none;align=left;verticalAlign=middle;spacingLeft=4;spacingRight=4;overflow=hidden;points=[[0,0.5],[1,0.5]];portConstraint=eastwest;rotatable=0;whiteSpace=wrap;html=1;" vertex="1" parent="BoF2zBruYuXJP3fgTU4w-16">
          <mxGeometry y="90" width="140" height="30" as="geometry" />
        </mxCell>
        <mxCell id="BoF2zBruYuXJP3fgTU4w-20" value="Endereço" style="text;strokeColor=none;fillColor=none;align=left;verticalAlign=middle;spacingLeft=4;spacingRight=4;overflow=hidden;points=[[0,0.5],[1,0.5]];portConstraint=eastwest;rotatable=0;whiteSpace=wrap;html=1;" vertex="1" parent="BoF2zBruYuXJP3fgTU4w-16">
          <mxGeometry y="120" width="140" height="30" as="geometry" />
        </mxCell>
        <mxCell id="BoF2zBruYuXJP3fgTU4w-21" value="Telefone" style="text;strokeColor=none;fillColor=none;align=left;verticalAlign=middle;spacingLeft=4;spacingRight=4;overflow=hidden;points=[[0,0.5],[1,0.5]];portConstraint=eastwest;rotatable=0;whiteSpace=wrap;html=1;" vertex="1" parent="BoF2zBruYuXJP3fgTU4w-16">
          <mxGeometry y="150" width="140" height="30" as="geometry" />
        </mxCell>
        <mxCell id="BoF2zBruYuXJP3fgTU4w-25" value="Posse" style="swimlane;fontStyle=0;childLayout=stackLayout;horizontal=1;startSize=30;horizontalStack=0;resizeParent=1;resizeParentMax=0;resizeLast=0;collapsible=1;marginBottom=0;whiteSpace=wrap;html=1;" vertex="1" parent="1">
          <mxGeometry x="555" y="330" width="140" height="180" as="geometry" />
        </mxCell>
        <mxCell id="BoF2zBruYuXJP3fgTU4w-26" value="Cód Posse (PK)" style="text;strokeColor=none;fillColor=none;align=left;verticalAlign=middle;spacingLeft=4;spacingRight=4;overflow=hidden;points=[[0,0.5],[1,0.5]];portConstraint=eastwest;rotatable=0;whiteSpace=wrap;html=1;" vertex="1" parent="BoF2zBruYuXJP3fgTU4w-25">
          <mxGeometry y="30" width="140" height="30" as="geometry" />
        </mxCell>
        <mxCell id="BoF2zBruYuXJP3fgTU4w-27" value="Cód Pessoa (FK)" style="text;strokeColor=none;fillColor=none;align=left;verticalAlign=middle;spacingLeft=4;spacingRight=4;overflow=hidden;points=[[0,0.5],[1,0.5]];portConstraint=eastwest;rotatable=0;whiteSpace=wrap;html=1;" vertex="1" parent="BoF2zBruYuXJP3fgTU4w-25">
          <mxGeometry y="60" width="140" height="30" as="geometry" />
        </mxCell>
        <mxCell id="BoF2zBruYuXJP3fgTU4w-28" value="Cód Propriedade (FK)" style="text;strokeColor=none;fillColor=none;align=left;verticalAlign=middle;spacingLeft=4;spacingRight=4;overflow=hidden;points=[[0,0.5],[1,0.5]];portConstraint=eastwest;rotatable=0;whiteSpace=wrap;html=1;" vertex="1" parent="BoF2zBruYuXJP3fgTU4w-25">
          <mxGeometry y="90" width="140" height="30" as="geometry" />
        </mxCell>
        <mxCell id="BoF2zBruYuXJP3fgTU4w-31" value="Número do Contrato" style="text;strokeColor=none;fillColor=none;align=left;verticalAlign=middle;spacingLeft=4;spacingRight=4;overflow=hidden;points=[[0,0.5],[1,0.5]];portConstraint=eastwest;rotatable=0;whiteSpace=wrap;html=1;" vertex="1" parent="BoF2zBruYuXJP3fgTU4w-25">
          <mxGeometry y="120" width="140" height="30" as="geometry" />
        </mxCell>
        <mxCell id="BoF2zBruYuXJP3fgTU4w-32" value="Data" style="text;strokeColor=none;fillColor=none;align=left;verticalAlign=middle;spacingLeft=4;spacingRight=4;overflow=hidden;points=[[0,0.5],[1,0.5]];portConstraint=eastwest;rotatable=0;whiteSpace=wrap;html=1;" vertex="1" parent="BoF2zBruYuXJP3fgTU4w-25">
          <mxGeometry y="150" width="140" height="30" as="geometry" />
        </mxCell>
        <mxCell id="BoF2zBruYuXJP3fgTU4w-29" style="edgeStyle=orthogonalEdgeStyle;rounded=0;orthogonalLoop=1;jettySize=auto;html=1;exitX=0;exitY=0.5;exitDx=0;exitDy=0;endArrow=none;endFill=0;" edge="1" parent="1" source="BoF2zBruYuXJP3fgTU4w-17" target="BoF2zBruYuXJP3fgTU4w-27">
          <mxGeometry relative="1" as="geometry" />
        </mxCell>
        <mxCell id="BoF2zBruYuXJP3fgTU4w-30" style="edgeStyle=orthogonalEdgeStyle;rounded=0;orthogonalLoop=1;jettySize=auto;html=1;exitX=1;exitY=0.5;exitDx=0;exitDy=0;entryX=0;entryY=0.5;entryDx=0;entryDy=0;endArrow=none;endFill=0;" edge="1" parent="1" source="BoF2zBruYuXJP3fgTU4w-8" target="BoF2zBruYuXJP3fgTU4w-28">
          <mxGeometry relative="1" as="geometry" />
        </mxCell>
        <mxCell id="BoF2zBruYuXJP3fgTU4w-34" value="Aluguel" style="swimlane;fontStyle=0;childLayout=stackLayout;horizontal=1;startSize=30;horizontalStack=0;resizeParent=1;resizeParentMax=0;resizeLast=0;collapsible=1;marginBottom=0;whiteSpace=wrap;html=1;" vertex="1" parent="1">
          <mxGeometry x="550" y="570" width="140" height="240" as="geometry" />
        </mxCell>
        <mxCell id="BoF2zBruYuXJP3fgTU4w-35" value="Cód Aluguel (PK)" style="text;strokeColor=none;fillColor=none;align=left;verticalAlign=middle;spacingLeft=4;spacingRight=4;overflow=hidden;points=[[0,0.5],[1,0.5]];portConstraint=eastwest;rotatable=0;whiteSpace=wrap;html=1;" vertex="1" parent="BoF2zBruYuXJP3fgTU4w-34">
          <mxGeometry y="30" width="140" height="30" as="geometry" />
        </mxCell>
        <mxCell id="BoF2zBruYuXJP3fgTU4w-36" value="Cód Pessoa (FK)" style="text;strokeColor=none;fillColor=none;align=left;verticalAlign=middle;spacingLeft=4;spacingRight=4;overflow=hidden;points=[[0,0.5],[1,0.5]];portConstraint=eastwest;rotatable=0;whiteSpace=wrap;html=1;" vertex="1" parent="BoF2zBruYuXJP3fgTU4w-34">
          <mxGeometry y="60" width="140" height="30" as="geometry" />
        </mxCell>
        <mxCell id="BoF2zBruYuXJP3fgTU4w-37" value="Cód Propriedade (FK)" style="text;strokeColor=none;fillColor=none;align=left;verticalAlign=middle;spacingLeft=4;spacingRight=4;overflow=hidden;points=[[0,0.5],[1,0.5]];portConstraint=eastwest;rotatable=0;whiteSpace=wrap;html=1;" vertex="1" parent="BoF2zBruYuXJP3fgTU4w-34">
          <mxGeometry y="90" width="140" height="30" as="geometry" />
        </mxCell>
        <mxCell id="BoF2zBruYuXJP3fgTU4w-38" value="Valor" style="text;strokeColor=none;fillColor=none;align=left;verticalAlign=middle;spacingLeft=4;spacingRight=4;overflow=hidden;points=[[0,0.5],[1,0.5]];portConstraint=eastwest;rotatable=0;whiteSpace=wrap;html=1;" vertex="1" parent="BoF2zBruYuXJP3fgTU4w-34">
          <mxGeometry y="120" width="140" height="30" as="geometry" />
        </mxCell>
        <mxCell id="BoF2zBruYuXJP3fgTU4w-39" value="Inicio" style="text;strokeColor=none;fillColor=none;align=left;verticalAlign=middle;spacingLeft=4;spacingRight=4;overflow=hidden;points=[[0,0.5],[1,0.5]];portConstraint=eastwest;rotatable=0;whiteSpace=wrap;html=1;" vertex="1" parent="BoF2zBruYuXJP3fgTU4w-34">
          <mxGeometry y="150" width="140" height="30" as="geometry" />
        </mxCell>
        <mxCell id="BoF2zBruYuXJP3fgTU4w-40" value="Fim" style="text;strokeColor=none;fillColor=none;align=left;verticalAlign=middle;spacingLeft=4;spacingRight=4;overflow=hidden;points=[[0,0.5],[1,0.5]];portConstraint=eastwest;rotatable=0;whiteSpace=wrap;html=1;" vertex="1" parent="BoF2zBruYuXJP3fgTU4w-34">
          <mxGeometry y="180" width="140" height="30" as="geometry" />
        </mxCell>
        <mxCell id="BoF2zBruYuXJP3fgTU4w-41" value="Situação" style="text;strokeColor=none;fillColor=none;align=left;verticalAlign=middle;spacingLeft=4;spacingRight=4;overflow=hidden;points=[[0,0.5],[1,0.5]];portConstraint=eastwest;rotatable=0;whiteSpace=wrap;html=1;" vertex="1" parent="BoF2zBruYuXJP3fgTU4w-34">
          <mxGeometry y="210" width="140" height="30" as="geometry" />
        </mxCell>
        <mxCell id="BoF2zBruYuXJP3fgTU4w-42" style="edgeStyle=orthogonalEdgeStyle;rounded=0;orthogonalLoop=1;jettySize=auto;html=1;exitX=1;exitY=0.5;exitDx=0;exitDy=0;entryX=0;entryY=0.5;entryDx=0;entryDy=0;" edge="1" parent="1" source="BoF2zBruYuXJP3fgTU4w-8" target="BoF2zBruYuXJP3fgTU4w-37">
          <mxGeometry relative="1" as="geometry" />
        </mxCell>
        <mxCell id="BoF2zBruYuXJP3fgTU4w-43" style="edgeStyle=orthogonalEdgeStyle;rounded=0;orthogonalLoop=1;jettySize=auto;html=1;exitX=1;exitY=0.5;exitDx=0;exitDy=0;entryX=0;entryY=0.5;entryDx=0;entryDy=0;" edge="1" parent="1" source="BoF2zBruYuXJP3fgTU4w-36" target="BoF2zBruYuXJP3fgTU4w-17">
          <mxGeometry relative="1" as="geometry" />
        </mxCell>
      </root>
    </mxGraphModel>
  </diagram>
</mxfile>
